<?xml version="1.0" encoding="utf-8"?>
<!-- Generator: Adobe Illustrator 25.3.1, SVG Export Plug-In . SVG Version: 6.00 Build 0)  -->
<svg version="1.1" id="Слой_1" xmlns="http://www.w3.org/2000/svg" xmlns:xlink="http://www.w3.org/1999/xlink" x="0px" y="0px"
	 viewBox="0 0 16 16" style="enable-background:new 0 0 16 16;" xml:space="preserve">
<g>
	<path d="M13.35,4.31l-4.97,8.37c-0.42,0.71-0.91,1.06-1.48,1.06c-0.8,0-1.2-0.5-1.2-1.51L5.57,6.79c0-0.99-0.09-1.65-0.25-1.99
		c-0.17-0.34-0.5-0.51-0.98-0.51c-0.45,0-0.88,0.23-1.31,0.69C2.6,5.44,2.38,5.91,2.38,6.38c0,0.39,0.12,0.71,0.37,0.94
		C3,7.56,3.32,7.68,3.73,7.68c0.1,0,0.19,0,0.29-0.01c0.11-0.01,0.18-0.01,0.2-0.01c0.65,0,0.98,0.27,0.98,0.82
		c0,0.36-0.18,0.66-0.55,0.9C4.28,9.62,3.82,9.74,3.26,9.74c-0.89,0-1.62-0.3-2.18-0.89C0.5,8.25,0.22,7.49,0.22,6.57
		c0-1.11,0.45-2.1,1.36-2.98c0.91-0.88,1.93-1.32,3.08-1.32c1.11,0,1.93,0.38,2.46,1.14c0.2,0.29,0.34,0.67,0.42,1.16
		C7.62,5.06,7.66,5.8,7.66,6.79v3.2l3.92-6.66l0.2-0.35c0.14-0.23,0.28-0.39,0.44-0.47c0.16-0.08,0.39-0.12,0.71-0.12l0.32-0.01
		h1.42c0.75,0,1.12,0.26,1.12,0.78c0,0.36-0.13,0.64-0.4,0.85c-0.26,0.2-0.63,0.31-1.1,0.31H13.35z"/>
</g>
</svg>
