<?xml version="1.0" encoding="utf-8"?>
<!-- Generator: Adobe Illustrator 25.3.1, SVG Export Plug-In . SVG Version: 6.00 Build 0)  -->
<svg version="1.1" id="Слой_1" xmlns="http://www.w3.org/2000/svg" xmlns:xlink="http://www.w3.org/1999/xlink" x="0px" y="0px"
	 viewBox="0 0 200 60" style="enable-background:new 0 0 200 60;" xml:space="preserve">
<style type="text/css">
	.st0{fill:#FFFFFF;}
</style>
<g>
	<path class="st0" d="M78.09,16.22L61.41,40c-1.41,2.01-3.06,3.01-4.96,3.01c-2.69,0-4.04-1.43-4.04-4.29l-0.43-15.45
		c0-2.8-0.28-4.69-0.85-5.66c-0.57-0.97-1.67-1.46-3.29-1.46c-1.5,0-2.97,0.65-4.41,1.96c-1.44,1.31-2.16,2.64-2.16,4.01
		c0,1.12,0.41,2.01,1.23,2.67c0.82,0.67,1.92,1,3.3,1c0.33,0,0.65-0.01,0.98-0.02c0.38-0.01,0.61-0.02,0.68-0.02
		c2.19,0,3.28,0.77,3.28,2.32c0,1.03-0.62,1.88-1.86,2.56c-1.24,0.68-2.8,1.02-4.68,1.02c-2.98,0-5.43-0.85-7.34-2.54
		c-1.91-1.69-2.86-3.85-2.86-6.46c0-3.15,1.52-5.98,4.57-8.48c3.05-2.5,6.5-3.75,10.35-3.75c3.72,0,6.48,1.08,8.27,3.24
		c0.67,0.81,1.13,1.91,1.4,3.31c0.26,1.39,0.39,3.5,0.39,6.31v9.09l13.15-18.94l0.68-0.99c0.45-0.66,0.94-1.1,1.46-1.33
		c0.52-0.23,1.32-0.34,2.39-0.34l1.06-0.02h4.77c61.73,0,63.51-0.07,67.73,0c0.72,0.01,0.98,4.67-3.3,4.67
		c-0.98,0-64.1,0.82-65.68,0.82H78.09z"/>
	<path class="st0" d="M85.33,37.07h3.06c2.28,0,3.42,0.68,3.42,2.04c0,0.93-0.4,1.66-1.21,2.18c-0.8,0.52-1.93,0.78-3.38,0.78h-4.31
		c-1.59,0-2.84-0.28-3.76-0.83c-0.91-0.55-1.37-1.3-1.37-2.25c0-0.5,0.19-1.15,0.57-1.93l4.47-9.32l0.3-0.64
		c0.83-1.73,2.17-2.59,4.01-2.59c0.76,0,1.41,0.21,1.97,0.64c0.55,0.43,0.83,0.94,0.83,1.54c0,0.49-0.24,1.24-0.73,2.25L85.33,37.07
		z M88.91,17.19c1.05,0,1.94,0.31,2.67,0.93c0.73,0.62,1.1,1.37,1.1,2.26c0,0.89-0.37,1.64-1.1,2.26c-0.73,0.62-1.62,0.93-2.67,0.93
		c-1.05,0-1.94-0.31-2.67-0.93s-1.1-1.37-1.1-2.26c0-0.89,0.37-1.64,1.1-2.26C86.97,17.5,87.86,17.19,88.91,17.19z"/>
	<path class="st0" d="M112.93,37.07h3.25c2.3,0,3.44,0.68,3.44,2.04c0,0.93-0.41,1.66-1.22,2.18c-0.81,0.52-1.93,0.78-3.36,0.78
		h-5.67c-1.1,0-2.03-0.28-2.78-0.85c-0.75-0.57-1.13-1.28-1.13-2.13c0-0.52,0.25-1.3,0.76-2.34l2.39-5
		c0.25-0.52,0.39-0.94,0.41-1.26c0.02-0.37-0.16-0.68-0.53-0.94c-0.37-0.26-0.85-0.39-1.42-0.39c-1.86,0-3.36,1.19-4.5,3.56
		l-3.2,6.66c-0.96,2.02-2.39,3.03-4.29,3.03c-0.78,0-1.44-0.2-1.98-0.6c-0.54-0.4-0.81-0.89-0.81-1.47c0-0.43,0.14-0.94,0.43-1.54
		l0.3-0.62l5.48-11.43c0.7-1.48,1.91-2.23,3.61-2.23c1.39,0,2.39,0.52,2.98,1.56c1.93-1.25,3.78-1.88,5.53-1.88
		c1.7,0,3.1,0.41,4.2,1.24c1.1,0.83,1.65,1.88,1.65,3.15c0,0.7-0.2,1.48-0.6,2.32L112.93,37.07z"/>
	<path class="st0" d="M136.12,43.01h3.15c2.3,0,3.44,0.68,3.44,2.04c0,0.93-0.4,1.66-1.21,2.18c-0.8,0.52-1.93,0.78-3.38,0.78h-4.39
		c-0.52,1.32-1.47,3.06-2.85,5.23c-2.39,3.83-5.86,5.74-10.41,5.74c-2.77,0-5.09-0.74-6.97-2.2c-1.88-1.47-2.82-3.29-2.82-5.46
		c0-1.51,0.51-2.93,1.53-4.24c1.02-1.31,2.36-2.29,4.03-2.95c1.92-0.75,4.75-1.12,8.49-1.12h4.42l0.79-1.65
		c-1.34,0.47-2.57,0.71-3.69,0.71c-1.93,0-3.5-0.42-4.71-1.25c-1.2-0.83-1.8-1.92-1.8-3.25c0-0.81,0.39-2.03,1.17-3.65l2.96-6.17
		l0.3-0.64c0.87-1.73,2.21-2.59,4.04-2.59c0.8,0,1.46,0.21,1.99,0.64c0.53,0.43,0.8,0.97,0.8,1.63c0,0.44-0.23,1.16-0.71,2.16
		l-2.66,5.49c-0.42,0.89-0.63,1.46-0.65,1.72c-0.05,0.75,0.51,1.12,1.68,1.12c0.83,0,1.68-0.21,2.55-0.62
		c0.87-0.41,1.42-0.88,1.65-1.4l3.63-7.51l0.27-0.64c0.85-1.73,2.2-2.59,4.04-2.59c0.8,0,1.46,0.22,1.99,0.65
		c0.53,0.44,0.8,0.98,0.8,1.62c0,0.44-0.14,0.96-0.41,1.54l-0.32,0.62L136.12,43.01z M127.25,48.02h-3.8c-4.16,0-6.24,1.1-6.24,3.31
		c0,0.78,0.28,1.41,0.85,1.88c0.57,0.47,1.33,0.71,2.29,0.71c1.32,0,2.49-0.44,3.51-1.31C124.9,51.74,126.02,50.21,127.25,48.02z"/>
	<path class="st0" d="M151.72,37.07h2.85c2.3,0,3.44,0.68,3.44,2.04c0,0.93-0.4,1.66-1.21,2.18c-0.8,0.52-1.93,0.78-3.38,0.78h-4.88
		c-1.34,0-2.4-0.27-3.17-0.8c-0.78-0.54-1.17-1.25-1.17-2.16c0-0.47,0.26-1.26,0.79-2.37l10.96-22.82l0.3-0.62
		c0.83-1.71,2.16-2.57,3.99-2.57c0.76,0,1.41,0.21,1.94,0.64c0.53,0.43,0.8,0.94,0.8,1.54c0,0.46-0.14,0.98-0.41,1.56l-0.3,0.62
		L151.72,37.07z"/>
</g>
</svg>
